<?xml version="1.0" standalone="no"?>
<!DOCTYPE svg PUBLIC "-//W3C//DTD SVG 20010904//EN"
 "http://www.w3.org/TR/2001/REC-SVG-20010904/DTD/svg10.dtd">
<svg version="1.0" xmlns="http://www.w3.org/2000/svg"
 width="120.000000pt" height="124.000000pt" viewBox="0 0 120.000000 124.000000"
 preserveAspectRatio="xMidYMid meet">

<g transform="translate(0.000000,124.000000) scale(0.100000,-0.100000)"
fill="#000000" stroke="none">
<path d="M0 620 l0 -620 600 0 600 0 0 620 0 620 -180 0 -180 0 0 -37 c-2
-112 -101 -229 -205 -241 l-45 -5 0 39 c0 48 37 129 76 168 16 16 52 39 79 52
l50 24 -397 0 -398 0 0 -620z m243 399 l68 -79 62 6 c53 5 75 1 147 -24 l85
-30 79 29 c59 21 99 29 150 30 l71 0 64 75 c64 74 65 74 114 74 l50 0 -19 -22
c-11 -13 -48 -54 -83 -91 l-62 -69 32 -23 c17 -13 38 -34 46 -45 15 -21 13
-25 -30 -68 -89 -93 -110 -187 -63 -287 21 -46 105 -135 127 -135 17 0 8 -35
-27 -107 l-37 -74 29 -32 c16 -18 51 -56 78 -84 l50 -53 -61 0 c-61 0 -62 0
-106 51 l-44 50 -34 -32 c-59 -55 -122 -64 -205 -29 -79 34 -120 35 -198 6
-115 -44 -170 -34 -241 45 l-38 42 -59 -66 c-59 -66 -61 -67 -110 -67 l-50 0
87 96 88 95 -36 82 c-47 108 -67 199 -67 300 0 120 38 225 104 286 14 14 26
28 26 33 0 4 -39 51 -86 103 l-86 95 59 0 58 -1 68 -80z"/>
<path d="M366 892 c-3 -5 42 -64 100 -131 86 -100 110 -121 132 -121 30 0 65
33 187 175 l69 80 -37 3 c-22 2 -67 -7 -109 -22 -86 -31 -116 -32 -191 -6 -72
25 -142 36 -151 22z"/>
<path d="M803 734 c-86 -96 -123 -144 -123 -161 0 -17 42 -70 142 -181 78 -86
145 -161 149 -165 7 -9 59 71 59 91 0 6 -22 32 -49 57 -29 27 -58 67 -71 98
-46 105 -22 253 51 323 16 15 29 32 29 37 0 13 -32 36 -50 37 -8 0 -70 -62
-137 -136z"/>
<path d="M234 824 c-21 -21 -48 -63 -62 -92 -23 -50 -24 -62 -19 -175 3 -74
11 -140 21 -167 24 -65 58 -140 65 -140 4 0 66 65 139 144 110 121 132 150
132 176 0 25 -18 51 -96 138 -54 59 -107 118 -120 131 l-23 25 -37 -40z"/>
<path d="M427 346 c-75 -85 -137 -161 -137 -169 0 -8 20 -33 45 -56 37 -34 51
-41 85 -41 23 0 55 7 72 16 17 9 62 18 102 21 57 4 82 1 126 -16 79 -30 128
-28 168 8 17 17 32 35 32 41 0 6 -66 87 -147 180 -131 150 -152 170 -178 170
-27 0 -47 -18 -168 -154z"/>
<path d="M740 1158 c-42 -29 -87 -85 -95 -120 -6 -23 -4 -26 13 -21 28 7 90
61 106 91 20 41 28 72 18 72 -5 0 -24 -10 -42 -22z"/>
</g>
</svg>
