<?xml version="1.0" encoding="UTF-8" standalone="no"?>
<svg
   version="1.1"
   id="Layer_1"
   x="0px"
   y="0px"
   width="100%"
   viewBox="0 0 2500 2084"
   enable-background="new 0 0 2500 2084"
   xml:space="preserve"
   sodipodi:docname="linktree2.svg"
   inkscape:version="1.1.2 (0a00cf5339, 2022-02-04)"
   xmlns:inkscape="http://www.inkscape.org/namespaces/inkscape"
   xmlns:sodipodi="http://sodipodi.sourceforge.net/DTD/sodipodi-0.dtd"
   xmlns="http://www.w3.org/2000/svg"
   xmlns:svg="http://www.w3.org/2000/svg"><defs
   id="defs123" /><sodipodi:namedview
   id="namedview121"
   pagecolor="#505050"
   bordercolor="#ffffff"
   borderopacity="1"
   inkscape:pageshadow="0"
   inkscape:pageopacity="0"
   inkscape:pagecheckerboard="1"
   showgrid="false"
   inkscape:zoom="0.38483685"
   inkscape:cx="1251.1796"
   inkscape:cy="1042"
   inkscape:window-width="1920"
   inkscape:window-height="979"
   inkscape:window-x="1920"
   inkscape:window-y="27"
   inkscape:window-maximized="1"
   inkscape:current-layer="Layer_1" />

<path
   fill="#FFFFFF"
   opacity="1.000000"
   stroke="none"
   d=" M1496.937256,2086.000000   C1494.077271,2084.814453 1492.289307,2083.262451 1490.211670,2082.497803   C1454.242065,2069.257080 1432.832764,2044.150024 1427.703613,2005.839355   C1426.871094,1999.621094 1426.393066,1993.304810 1426.390259,1987.033569   C1426.319458,1831.391602 1426.334839,1675.749756 1426.334839,1520.107788   C1426.334839,1516.476807 1426.334717,1512.845825 1426.334717,1508.052734   C1430.183228,1507.917847 1433.687622,1507.690430 1437.192261,1507.688110   C1476.519287,1507.662842 1515.849243,1507.945312 1555.172119,1507.542725   C1571.774536,1507.372925 1588.184326,1505.129883 1603.614258,1498.052124   C1636.755615,1482.849609 1657.828003,1457.325928 1665.192627,1421.998413   C1669.375732,1401.932373 1666.408325,1381.644043 1656.113037,1363.049683   C1624.708496,1306.329590 1593.433594,1249.537476 1562.103027,1192.776245   C1535.114868,1143.882568 1508.115479,1094.995117 1481.128784,1046.100708   C1440.804565,973.041687 1400.498047,899.972961 1360.162964,826.919983   C1329.150146,770.750854 1298.103394,714.600403 1267.079224,658.437500   C1265.953857,656.400208 1265.165649,654.121765 1263.770508,652.300171   C1261.088013,648.797852 1261.991089,645.892273 1263.931641,642.308472   C1278.180054,615.996155 1292.162598,589.540039 1306.302612,563.168762   C1329.870728,519.214478 1353.487427,475.286133 1377.095947,431.353485   C1400.544189,387.718872 1424.048950,344.114624 1447.451538,300.455536   C1468.498535,261.190613 1489.403442,221.849487 1510.440308,182.579071   C1529.594604,146.822922 1548.271484,110.794319 1568.218140,75.484230   C1586.019043,43.972103 1613.531616,25.474619 1649.809692,21.777563   C1698.401978,16.825563 1735.442505,35.902157 1759.325928,78.393700   C1795.003906,141.869492 1829.841431,205.817719 1865.026245,269.570679   C1911.130615,353.109589 1957.271484,436.628357 2003.310059,520.203552   C2043.733765,593.586060 2083.997559,667.056641 2124.407227,740.446838   C2158.243164,801.897522 2192.181641,863.291687 2226.086182,924.704529   C2262.562256,990.776001 2299.087402,1056.820557 2335.526123,1122.912720   C2379.829346,1203.269165 2424.072021,1283.659180 2468.325928,1364.043091   C2488.103516,1399.968140 2484.727783,1445.307129 2451.520996,1478.714233   C2433.596680,1496.746582 2411.200928,1506.452759 2385.514648,1507.644775   C2377.205811,1508.030396 2368.882812,1508.297485 2360.566162,1508.299683   C2213.589355,1508.338501 2066.612793,1508.327881 1919.636108,1508.327881   C1916.027466,1508.327881 1912.418701,1508.327881 1907.665283,1508.327881   C1907.665283,1512.875366 1907.665161,1516.762207 1907.665161,1520.649170   C1907.665161,1676.957642 1907.312012,1833.267578 1907.880615,1989.573975   C1908.051147,2036.453613 1879.088623,2073.736084 1837.848022,2085.224609   C1724.624878,2086.000000 1611.249756,2086.000000 1496.937256,2086.000000  z"
   id="path116"
   style="stroke:#000000;fill:#000000" />
<path
   fill="#FFFFFF"
   opacity="1.000000"
   stroke="none"
   d=" M672.937317,2086.000000   C674.548523,2083.245117 671.703247,2082.943604 670.192566,2082.176758   C662.796692,2078.422363 654.805542,2075.541016 648.057983,2070.861328   C621.297974,2052.303467 607.861145,2026.304077 607.724426,1993.794067   C607.504395,1941.467407 607.665283,1889.139160 607.665283,1836.811523   C607.665283,1731.489624 607.665283,1626.167847 607.665283,1520.845947   C607.665283,1517.195679 607.665283,1513.545532 607.665283,1508.601807   C603.479370,1508.505127 599.638977,1508.339111 595.798523,1508.338745   C442.148590,1508.325684 288.498657,1508.292847 134.848770,1508.363403   C110.314201,1508.374634 87.308914,1503.420288 67.246284,1488.584961   C44.807335,1471.992554 31.328976,1450.092773 27.534100,1422.109253   C24.695724,1401.178833 28.872742,1381.847412 38.871010,1363.681396   C94.340263,1262.899414 149.948761,1162.193970 205.515610,1061.465698   C250.162079,980.533386 294.849548,899.623718 339.460236,818.671631   C395.625183,716.752808 451.698975,614.783630 507.871246,512.868835   C555.377991,426.676117 602.975464,340.533447 650.520325,254.361771   C682.962585,195.562607 715.265625,136.686295 747.859497,77.971397   C766.220398,44.895786 794.137817,26.117035 832.045410,21.501648   C876.962830,16.032795 919.543579,39.569771 939.126343,75.877480   C954.281006,103.975327 968.846985,132.391190 983.622437,160.692963   C1009.322815,209.920776 1034.975708,259.173401 1060.661865,308.408630   C1086.504272,357.943298 1112.344849,407.478882 1138.219238,456.996765   C1168.096069,514.174622 1198.016724,571.329529 1227.895264,628.506470   C1231.120361,634.677795 1234.191895,640.929321 1237.486816,647.444641   C1227.460083,665.802856 1217.485352,684.212830 1207.376099,702.548706   C1168.850586,772.425720 1130.311890,842.295410 1091.719727,912.135559   C1059.236206,970.921021 1026.612061,1029.628906 994.159119,1088.431152   C959.293701,1151.604492 924.571289,1214.856812 889.753662,1278.056641   C875.475586,1303.973633 862.043457,1330.414795 846.588928,1355.613159   C816.283081,1405.026367 836.913635,1461.119751 878.933777,1489.251343   C893.835693,1499.227783 910.223022,1505.478149 928.260010,1506.259521   C946.515991,1507.050537 964.796692,1507.470947 983.070007,1507.615479   C1010.731934,1507.834229 1038.396851,1507.668579 1066.060547,1507.686279   C1067.677368,1507.687256 1069.294189,1507.864746 1071.479126,1507.993652   C1071.666870,1510.504517 1071.978638,1512.729858 1071.978882,1514.955200   C1072.001831,1672.937988 1071.859619,1830.920898 1072.138916,1988.903198   C1072.185181,2015.037109 1065.208984,2038.025513 1047.531494,2057.460938   C1038.201050,2067.719238 1026.901978,2075.143066 1014.108093,2080.430420   C1011.489685,2081.512451 1009.181824,2083.346191 1007.365417,2085.416748   C896.624878,2086.000000 785.249756,2086.000000 672.937317,2086.000000  z"
   id="path118"
   style="stroke:#000000;fill:#000000" />
</svg>
